{
  "asset": {
    "generator": "Khronos glTF Blender I/O v1.1.46",
    "version": "2.0"
  },
  "scene": 0,
  "scenes": [
    {
      "name": "Scene",
      "nodes": [
        0,
        1,
        2,
        3,
        9
      ]
    }
  ],
  "nodes": [
    {
      "name": "Light",
      "rotation": [
        0.16907575726509094,
        0.7558803558349609,
        -0.27217137813568115,
        0.570947527885437
      ],
      "translation": [
        4.076245307922363,
        5.903861999511719,
        -1.0054539442062378
      ]
    },
    {
      "name": "Camera",
      "rotation": [
        0.483536034822464,
        0.33687159419059753,
        -0.20870360732078552,
        0.7804827094078064
      ],
      "translation": [
        7.358891487121582,
        4.958309173583984,
        6.925790786743164
      ]
    },
    {
      "name": "Light.001",
      "rotation": [
        0.5232754945755005,
        0.34203392267227173,
        -0.7269423604011536,
        0.284166157245636
      ],
      "translation": [
        4.076245307922363,
        5.903862476348877,
        -1.0054532289505005
      ]
    },
    {
      "name": "Camera.001",
      "rotation": [
        0.8937963247299194,
        0.09062855690717697,
        -0.3857799172401428,
        0.20997287333011627
      ],
      "translation": [
        7.358891487121582,
        4.958308696746826,
        6.925792217254639
      ]
    },
    {
      "mesh": 0,
      "name": "Icosphere_Material.001_0"
    },
    {
      "children": [
        4
      ],
      "name": "Icosphere",
      "rotation": [
        -0.7071068286895752,
        0,
        0,
        0.7071067094802856
      ],
      "scale": [
        235.61709594726562,
        235.6170654296875,
        176.3325653076172
      ],
      "translation": [
        -174.5377960205078,
        -731.0589599609375,
        0
      ]
    },
    {
      "children": [
        5
      ],
      "name": "RootNode"
    },
    {
      "children": [
        6
      ],
      "name": "Tree.fbx",
      "rotation": [
        0.7071068286895752,
        0,
        0,
        0.7071067094802856
      ]
    },
    {
      "children": [
        7
      ],
      "name": "RootNode (model correction matrix)"
    },
    {
      "children": [
        8
      ],
      "name": "RootNode (gltf orientation matrix)",
      "rotation": [
        0.7071068286895752,
        0,
        0,
        0.7071067094802856
      ],
      "scale": [
        0.004999999888241291,
        0.004999999888241291,
        0.004999999888241291
      ]
    }
  ],
  "materials": [
    {
      "doubleSided": true,
      "emissiveFactor": [
        0,
        0,
        0
      ],
      "name": "Material_0.001",
      "pbrMetallicRoughness": {
        "baseColorTexture": {
          "index": 0,
          "texCoord": 0
        },
        "metallicFactor": 0,
        "roughnessFactor": 0.9568628072738647
      }
    }
  ],
  "meshes": [
    {
      "name": "Mesh_0.001",
      "primitives": [
        {
          "attributes": {
            "POSITION": 0,
            "NORMAL": 1,
            "TEXCOORD_0": 2
          },
          "indices": 3,
          "material": 0
        }
      ]
    }
  ],
  "textures": [
    {
      "source": 0
    }
  ],
  "images": [
    {
      "name": "Image_0",
      "uri": "tree_img0.png"
    }
  ],
  "accessors": [
    {
      "bufferView": 0,
      "componentType": 5126,
      "count": 642,
      "max": [
        2.396726608276367,
        1.2723299264907837,
        4.258903503417969
      ],
      "min": [
        -1.0438892841339111,
        -1.4909886121749878,
        -1.8582763671875
      ],
      "type": "VEC3"
    },
    {
      "bufferView": 1,
      "componentType": 5126,
      "count": 642,
      "type": "VEC3"
    },
    {
      "bufferView": 2,
      "componentType": 5126,
      "count": 642,
      "type": "VEC2"
    },
    {
      "bufferView": 3,
      "componentType": 5123,
      "count": 642,
      "type": "SCALAR"
    }
  ],
  "bufferViews": [
    {
      "buffer": 0,
      "byteLength": 7704,
      "byteOffset": 0
    },
    {
      "buffer": 0,
      "byteLength": 7704,
      "byteOffset": 7704
    },
    {
      "buffer": 0,
      "byteLength": 5136,
      "byteOffset": 15408
    },
    {
      "buffer": 0,
      "byteLength": 1284,
      "byteOffset": 20544
    }
  ],
  "buffers": [
    {
      "uri": "tree_data.bin",
      "byteLength": 21828
    }
  ]
}